<svg width="133" height="26" viewBox="0 0 133 26" fill="none" xmlns="http://www.w3.org/2000/svg">
<path d="M12.5978 25.384C10.8911 25.384 9.31242 25.0747 7.86175 24.456C6.43242 23.8373 5.17375 22.9733 4.08575 21.864C3.01908 20.7547 2.18708 19.4533 1.58975 17.96C0.992417 16.4667 0.69375 14.8347 0.69375 13.064C0.69375 11.2933 0.98175 9.66133 1.55775 8.168C2.15508 6.65333 2.98708 5.352 4.05375 4.264C5.14175 3.15467 6.41108 2.30133 7.86175 1.704C9.31242 1.08533 10.8911 0.775999 12.5978 0.775999C14.3044 0.775999 15.8298 1.064 17.1737 1.64C18.5391 2.216 19.6911 2.984 20.6298 3.944C21.5684 4.88267 22.2404 5.91733 22.6458 7.048L18.7418 8.872C18.2938 7.67733 17.5364 6.696 16.4698 5.928C15.4031 5.13867 14.1124 4.744 12.5978 4.744C11.1044 4.744 9.78175 5.096 8.62975 5.8C7.49908 6.504 6.61375 7.47467 5.97375 8.712C5.35508 9.94933 5.04575 11.4 5.04575 13.064C5.04575 14.728 5.35508 16.1893 5.97375 17.448C6.61375 18.6853 7.49908 19.656 8.62975 20.36C9.78175 21.064 11.1044 21.416 12.5978 21.416C14.1124 21.416 15.4031 21.032 16.4698 20.264C17.5364 19.4747 18.2938 18.4827 18.7418 17.288L22.6458 19.112C22.2404 20.2427 21.5684 21.288 20.6298 22.248C19.6911 23.1867 18.5391 23.944 17.1737 24.52C15.8298 25.096 14.3044 25.384 12.5978 25.384ZM25.227 25L33.451 1.16H39.083L47.307 25H42.571L40.875 19.88H31.659L29.931 25H25.227ZM32.907 16.04H39.627L35.659 4.168H36.875L32.907 16.04ZM50.9603 25V1.16H59.8243C61.4456 1.16 62.8749 1.45867 64.1123 2.056C65.3709 2.632 66.3523 3.48533 67.0563 4.616C67.7603 5.72533 68.1123 7.08 68.1123 8.68C68.1123 10.3227 67.7176 11.72 66.9283 12.872C66.1603 14.024 65.1149 14.8773 63.7923 15.432L69.2643 25H64.3363L58.4803 14.536L61.2963 16.2H55.3123V25H50.9603ZM55.3123 12.36H59.8883C60.6776 12.36 61.3603 12.2107 61.9363 11.912C62.5123 11.592 62.9603 11.1547 63.2803 10.6C63.6003 10.0453 63.7603 9.40533 63.7603 8.68C63.7603 7.93333 63.6003 7.29333 63.2803 6.76C62.9603 6.20533 62.5123 5.77867 61.9363 5.48C61.3603 5.16 60.6776 5 59.8883 5H55.3123V12.36ZM73.1165 25V1.16H88.9565V5H77.4685V11.112H88.3165V14.952H77.4685V21.16H88.9565V25H73.1165ZM93.1478 25V1.16H96.5398L109.66 18.824L107.9 19.176V1.16H112.252V25H108.828L95.8998 7.208L97.4998 6.856V25H93.1478ZM122.091 25V5H115.915V1.16H132.555V5H126.475V25H122.091Z" fill="#3563E9"/>
</svg>
